<svg xmlns="http://www.w3.org/2000/svg" viewBox="0 0 256 256" role="img" aria-labelledby="title desc">
  <title id="title">Flux Helm IntelliSense icon</title>
  <desc id="desc">A dark rounded square with a Helm wheel, Flux orbit, and YAML completion brackets.</desc>
  <defs>
    <linearGradient id="bg" x1="44" y1="28" x2="212" y2="228" gradientUnits="userSpaceOnUse">
      <stop offset="0" stop-color="#123a42"/>
      <stop offset="0.55" stop-color="#1d3454"/>
      <stop offset="1" stop-color="#222b34"/>
    </linearGradient>
    <linearGradient id="accent" x1="64" y1="56" x2="190" y2="196" gradientUnits="userSpaceOnUse">
      <stop offset="0" stop-color="#42d392"/>
      <stop offset="1" stop-color="#4db5ff"/>
    </linearGradient>
    <filter id="shadow" x="-20%" y="-20%" width="140%" height="140%">
      <feDropShadow dx="0" dy="8" stdDeviation="12" flood-color="#000000" flood-opacity="0.28"/>
    </filter>
  </defs>

  <rect width="256" height="256" rx="48" fill="url(#bg)"/>
  <path d="M42 184c36 30 103 34 152 4 21-13 30-31 25-47" fill="none" stroke="#314b62" stroke-width="14" stroke-linecap="round" opacity="0.75"/>
  <path d="M214 72c-36-28-99-31-147-4-21 12-31 30-28 47" fill="none" stroke="#263f4b" stroke-width="14" stroke-linecap="round" opacity="0.85"/>

  <g filter="url(#shadow)">
    <circle cx="128" cy="126" r="58" fill="#101820" stroke="url(#accent)" stroke-width="10"/>
    <circle cx="128" cy="126" r="16" fill="#17242d" stroke="#d7fff0" stroke-width="7"/>
    <g stroke="#d7fff0" stroke-width="8" stroke-linecap="round">
      <path d="M128 56v28"/>
      <path d="M128 168v28"/>
      <path d="M58 126h28"/>
      <path d="M170 126h28"/>
      <path d="M78 76l20 20"/>
      <path d="M178 76l-20 20"/>
      <path d="M78 176l20-20"/>
      <path d="M178 176l-20-20"/>
    </g>
  </g>

  <g fill="none" stroke-linecap="round" stroke-linejoin="round">
    <path d="M54 96c8-30 36-53 72-56 38-3 72 15 86 43" stroke="#42d392" stroke-width="8"/>
    <path d="M202 70l12 21-25 1" stroke="#42d392" stroke-width="8"/>
    <path d="M202 158c-9 30-38 52-73 55-39 3-72-16-86-44" stroke="#4db5ff" stroke-width="8"/>
    <path d="M54 184l-12-21 25-1" stroke="#4db5ff" stroke-width="8"/>
  </g>

  <g stroke="#f6fbff" stroke-width="11" stroke-linecap="round" stroke-linejoin="round" opacity="0.96">
    <path d="M82 103l-22 23 22 23"/>
    <path d="M174 103l22 23-22 23"/>
  </g>

  <g fill="#42d392">
    <circle cx="108" cy="102" r="6"/>
    <circle cx="108" cy="126" r="6"/>
    <circle cx="108" cy="150" r="6"/>
  </g>
</svg>
